<?xml version="1.0" encoding="iso-8859-1"?>
<!-- Generator: Adobe Illustrator 19.0.0, SVG Export Plug-In . SVG Version: 6.00 Build 0)  -->
<svg version="1.1" id="Capa_1" xmlns="http://www.w3.org/2000/svg" xmlns:xlink="http://www.w3.org/1999/xlink" x="0px" y="0px"
	 viewBox="0 0 512 512" style="enable-background:new 0 0 512 512;" xml:space="preserve">
<path style="fill:#FFA5C8;" d="M511.999,255.999c0,140.486-113.677,255.999-255.999,255.999
	c-141.952,0-255.999-115.164-255.999-255.999C0.001,114.615,114.615,0,256,0C397.648,0,511.999,114.857,511.999,255.999z"/>
<path style="fill:#FFD7AA;" d="M278.662,349.07l-4.309,162.277C268.295,511.779,262.174,512,256,512
	c-46.693,0-90.373-12.463-127.963-34.208l11.431-65.762l12.453-71.535h0.021l42.279,2.866L278.662,349.07z"/>
<path style="fill:#FFC396;" d="M194.231,343.307l-0.011,0.053l-26.612,152.984c-13.791-5.068-27.023-11.294-39.571-18.553
	c-0.011,0-0.011-0.011-0.021-0.011l11.452-65.751l12.474-71.535v-0.021L194.231,343.307z"/>
<path style="fill:#FFD7AA;" d="M421.368,295.978c-23.489,0-21.791,6.222-21.791,16.81c0,31.527-63.113,2.858-63.113,38.235
	c15.867,33.75,38.969,23.657,35.556,39.306l-17.832,37.918v0.06c-3.71,7.111-10.326,12.231-14.558,13.287
	c-1.518,0.516-13.864,1.836-37.173-5.259c-69.324-22.568-141.765-83.49-163.856-106.895c0.009-0.009,0-0.02-0.009-0.02
	c-6.565-7.119-12.609-14.537-18.488-22.943c0-0.009,0-0.009-0.02-0.02c-2.838-4.058-5.517-8.217-8.048-12.463
	c0-1.233-39.197-56.808-24.094-130.653c10.92-70.266,70.031-128.01,155.996-126.009c81.888,2.133,146.927,69.008,148.584,150.906
	c0.595,29.443-1.657,19.143,41.202,92.278C437.493,287.85,430.983,295.978,421.368,295.978z"/>
<path style="fill:#FFA5C8;" d="M122.584,204.596l0.006,0.005c5.294,9.946,9.244,15.182,19.199,20.848c0,0,0,0,0.005,0
	c19.376,10.955,48.548,13.127,61.184,6.977c2.528-1.227,4.975-4.494,7.536-5.177c3.524-0.946,8.238,1.364,11.95,1.515
	c22.271,0.937,49.899-19.659,66.792-34.098c5.381-2.339,11.542-1.098,17.404-1.089c5.855-0.001,29.219-8.766,33.747-22.586
	c4.88-14.91,0.981-31.112-2.941-46.309c-0.346-1.342-11.866-57.171-100.512-57.893c-15.336-0.134-30.355,2.123-43.558,9.678
	c-5.189,2.965-5.939,3.002-10.371,2.378c-8.472-1.08-15.904-0.395-27.813,5.533c-21.024,10.46-38.328,29.544-45.95,52.238v0.005
	C103.622,153.2,102.077,167.54,122.584,204.596z"/>
<g>
	<path style="fill:#FF8CB4;" d="M340.409,170.992c-4.526,13.822-27.892,22.587-33.745,22.582
		c-5.869-0.003-12.022-1.249-17.409,1.093c-16.893,14.44-44.517,35.036-66.786,34.102c-3.713-0.156-8.431-2.466-11.956-1.518
		c-2.562,0.684-5.01,3.954-7.533,5.18c-12.642,6.147-41.814,3.976-61.183-6.982c-0.008,0.001-0.008,0.001-0.008,0.001
		c-9.954-5.669-13.906-10.9-19.198-20.847l-0.009-0.007c-20.504-37.056-18.957-51.393-13.321-67.972l-0.001-0.008
		c2.833-8.44,7.007-16.369,12.215-23.552c33.205,40.331,84.772,64.53,140.858,60.569c29.503-2.084,56.681-11.713,79.777-26.864
		C343.116,154.978,342.97,163.16,340.409,170.992z"/>
	<path style="fill:#FF8CB4;" d="M333.941,151.784c-1.707,14.117-12.769,19.838-20.734,18.669c-3.972-0.579-7.111-2.476-9.787-4.952
		c-7.586-7.048-11.336-18.795-19.195-18.49c-2.518,0.116-5.183,1.907-6.922,4.699c-3.013,4.815-3.888,14.455-4.025,20.786v0.011
		c-0.021,0.759-0.19,1.528,0.485,1.601c9.808,1.011,20.628,4.499,22.409,14.202c0.284,1.57,0.284,3.076,0.063,4.509
		c-0.053,0.274-0.232,0.4-0.527,0.464c-0.011,0-0.021,0-0.032,0.011c-0.337,0.063-0.832,0.074-1.496,0.126
		c-0.948,0.063-2.233,0.232-3.898,0.843c-0.327,0.116-0.653,0.232-0.969,0.379c-0.095,0.053-0.137,0.095-0.179,0.116
		c-0.021,0.021-0.032,0.032-0.053,0.042c-0.369,0.232-0.874-0.032-0.864-0.506c0.063-1.907-0.084-3.529-0.253-4.467
		c-1.654-8.976-32.417-12.527-53.73,2.697c-2.665,1.896-5.204,3.55-8.607,3.255c-5.868-0.485-8.207-6.216-10.409-8.397
		c-3.666-3.614-11.231-0.98-16.93,1.875c-4.383,2.191-17.721,8.871-26.465,0.959c-8.017-7.28-6.521-24.79-3.392-35.02
		c0.242-0.79,0.516-1.549,0.801-2.276c2.297-5.773,5.995-9.355,10.556-10.177c6.648-1.18,11.673,3.687,15.35,7.248
		c14.476,14.107,34.019,14.549,40.266,9.577c2.887-2.297,4.551-6.479,4.351-10.904c-0.19-4.025-1.78-8.365-4.751-12.895
		c-12.189-18.679-39.56-26.317-61.01-17.015c-10.093,4.383-18.49,11.989-24.421,21.303c-4.846,7.564-8.06,16.246-9.24,25.232
		c-0.011,0.063-0.011,0.147,0.011,0.221c1.422,5.226-0.537,9.071-0.516,9.503c0.211,6.479,1.622,15.455,7.164,21.829
		c3.94,4.572,10.999,10.03,9.577,18.152c-1.201,6.88-8.281,10.714-14.771,10.451c-0.011,0-0.011,0-0.011,0
		c-0.316-0.179-0.622-0.358-0.917-0.527c-3.361-1.939-5.942-3.845-8.112-5.9c-0.011-0.011-0.021-0.021-0.032-0.032
		c-0.348-0.337-0.695-0.674-1.032-1.011c-0.169-0.179-0.348-0.358-0.506-0.537c-2.665-2.876-4.751-6.121-7.122-10.24
		c0.284-0.253,0.421-0.348,0.864-0.727c8.017,6.469,11.958,9.861,16.446,10.556c2.802,0.453,6.542-1.001,6.974-3.477
		c1.064-6.058-11.757-9.471-15.687-28.277c-0.464-2.16-2.613,3.55-17.415,4.183c-0.232,0.011-0.453-0.116-0.548-0.337
		c-1.001-2.191-2.107-4.783-3.034-7.164c-0.147-0.369,0.116-0.78,0.527-0.78c7.67-0.032,15.582-1.085,19.195-7.807
		c0.242-0.464-0.116-1.644,0.39-6.774c0.011-0.116,0-0.232-0.063-0.327c-3.572-6.711-14.865-6.69-25.074-18.869
		c-0.105-0.137-0.158-0.316-0.116-0.485c0.474-2.413,1.306-5.721,1.886-7.68c0.042-0.148,0.095-0.295,0.137-0.453
		c0.074-0.242,0.158-0.474,0.232-0.716c0.021-0.042,0.032-0.095,0.053-0.137c0.011-0.032,0.032-0.074,0.042-0.105
		c0.137-0.464,0.769-0.527,1.022-0.116c6.974,11.61,15.645,12.737,23.051,17.984c1.802,1.296,1.085-7.385,10.072-20.871
		c0.917-1.37,1.939-2.802,3.076-4.277c-2.444,0.537-5.162,0.548-7.986-0.021c-6.416-1.317-13.359-5.668-18.774-13.759
		c-0.105-0.179-0.116-0.411-0.011-0.601c0.011-0.021,0.021-0.042,0.032-0.063c0.126-0.232,0.653-1.001,1.37-1.991
		c0.105-0.158,0.221-0.316,0.337-0.474c0.116-0.169,0.232-0.337,0.358-0.495c0.021-0.021,0.032-0.053,0.063-0.074
		c0.78-1.075,1.665-2.265,2.444-3.255c1.032-1.285,1.559,2.592,6.521,7.385c4.098,3.961,9.208,5.921,13.685,5.236
		c4.13-0.632,7.786-3.171,18.332-9.45c3.034-1.812,3.445-2.033,3.93-6.827c0.801-8.333,1.823-18.837,6.469-27.297
		c0.158-0.105,0.284-0.19,0.442-0.295c5.384-0.601,8.723,0.2,9.714,0.284c-7.238,7.986-7.543,22.272-8.513,29.91
		c-0.053,0.411,0.337,0.737,0.737,0.611c10.915-3.624,23.072-3.898,34.735-0.716c43.964,12,51.413,63.128,13.728,62.138
		c-12.168-0.316-24.642-5.204-34.366-14.802c-2.781-2.687-5.647-5.468-8.081-5.025c-1.717,0.295-3.413,2.486-4.583,5.879
		c-0.095,0.263-0.19,0.527-0.274,0.811c-2.023,6.585-3.866,21.956,1.011,26.37c3.034,2.75,8.639,2.023,17.131-2.223
		c25.843-12.927,28.73,5.426,31.764,5.668c1.907,0.147,14.023-12.59,38.054-13.633c0.253-0.011,0.453-0.169,0.516-0.4v-0.011
		c0.021-0.042,0.021-0.095,0.032-0.147c0.095-8.049,1.138-19.29,5.299-25.98c3.234-5.183,8.355-8.407,13.685-8.618
		c15.982-0.643,19.606,20.102,29.288,23.231c4.046,1.264,7.933-1.127,10.261-4.551v-0.011c6.953-10.356-1.96-37.78-17.362-41.847
		c-17.794-4.73-36.8,16.93-59.082-3.213c-11.916-10.778-19.006-27.487-18.458-44.775c0.021-0.306,0.253-0.548,0.558-0.558
		c2.402-0.126,4.825-0.179,7.259-0.169c0.327,0,0.579,0.274,0.569,0.59c-0.832,22.672,13.506,40.751,24.653,44.375
		c13.422,4.383,29.889-8.744,46.63-4.33C326.524,112.277,335.785,137.098,333.941,151.784z"/>
</g>
<path style="fill:#FFC396;" d="M354.187,428.307c-3.71,7.111-10.326,12.231-14.558,13.287c-1.518,0.516-13.864,1.836-37.173-5.259
	C238.96,417.017,162.642,354.912,138.6,329.44c0.009-0.009,0-0.02-0.009-0.02c-7.141-7.744-13.05-15.168-18.488-22.943
	c0-0.009,0-0.009-0.02-0.02c-2.818-4.058-5.508-8.217-8.048-12.463c0-0.509-10.428-15.334-19.222-42.83
	C159.17,334.025,250.079,396.711,354.187,428.307z"/>
<g>
	<path style="fill:#FF73A0;" d="M119.336,116.765c-0.105-0.179-0.116-0.411-0.011-0.601c0.011-0.021,0.021-0.042,0.032-0.063
		c0.453-0.674,0.906-1.338,1.37-1.991c0.105-0.158,0.221-0.316,0.337-0.474c0.116-0.169,0.232-0.337,0.358-0.495
		c0.011-0.032,0.032-0.053,0.053-0.084l0.011,0.011c5.12,6.216,10.683,12.052,16.625,17.457
		C131.693,129.207,124.75,124.856,119.336,116.765z"/>
	<path style="fill:#FF73A0;" d="M146.991,196.844c3.94,4.572,10.999,10.03,9.577,18.152c-1.201,6.88-8.281,10.714-14.771,10.451
		c-0.011,0-0.011,0-0.011,0c-0.316-0.179-0.622-0.358-0.917-0.527c-3.287-1.939-5.889-3.835-8.112-5.9
		c-0.011-0.011-0.021-0.021-0.032-0.032c-0.348-0.337-0.695-0.674-1.032-1.011c-0.169-0.179-0.348-0.358-0.506-0.537
		c-2.665-2.876-4.751-6.121-7.122-10.24c0.284-0.253,0.421-0.348,0.864-0.727c8.017,6.469,11.958,9.861,16.446,10.556
		c2.802,0.453,6.542-1.001,6.974-3.477c1.064-6.058-11.757-9.471-15.687-28.277c-0.464-2.16-2.613,3.55-17.415,4.183
		c-0.232,0.011-0.453-0.116-0.548-0.337c-1.001-2.191-2.107-4.783-3.034-7.164c-0.147-0.369,0.116-0.78,0.527-0.78
		c7.67-0.032,15.582-1.085,19.195-7.807c0.242-0.464-0.116-1.644,0.39-6.774c0.011-0.116,0-0.232-0.063-0.327
		c-3.572-6.711-14.865-6.69-25.074-18.869c-0.105-0.137-0.158-0.316-0.116-0.485c0.474-2.413,1.306-5.721,1.886-7.68
		c0.042-0.147,0.095-0.295,0.137-0.453c0.074-0.242,0.158-0.474,0.232-0.716c0.021-0.042,0.032-0.095,0.053-0.137
		c0.011-0.032,0.032-0.074,0.042-0.105c0.137-0.464,0.769-0.527,1.022-0.116c6.974,11.61,15.645,12.737,23.051,17.984
		c1.802,1.296,1.085-7.385,10.072-20.871c2.139,1.802,4.32,3.55,6.553,5.236c-4.846,7.564-8.06,16.246-9.24,25.232
		c-0.011,0.063-0.011,0.147,0.011,0.221c1.422,5.226-0.537,9.071-0.516,9.503C140.037,181.494,141.449,190.47,146.991,196.844z"/>
	<path style="fill:#FF73A0;" d="M296.171,188.311c0.284,1.57,0.284,3.076,0.063,4.509c-0.053,0.274-0.232,0.4-0.527,0.464
		c-0.011,0-0.021,0-0.032,0.011c-0.506,0.021-1.001,0.063-1.496,0.126c-1.327,0.137-2.634,0.4-3.898,0.843
		c-0.327,0.116-0.653,0.232-0.969,0.379c-0.021,0-0.042,0.011-0.063,0.021c-0.042,0.032-0.074,0.063-0.116,0.095
		c-0.021,0.021-0.032,0.032-0.053,0.042c-0.369,0.232-0.874-0.032-0.864-0.506c0.063-1.907-0.084-3.529-0.253-4.467
		c-1.654-8.976-32.417-12.527-53.73,2.697c-2.665,1.896-5.204,3.55-8.607,3.255c-5.868-0.485-8.207-6.216-10.409-8.397
		c-3.666-3.614-11.231-0.98-16.93,1.875c-4.383,2.191-17.721,8.871-26.465,0.959c-8.017-7.28-6.521-24.79-3.392-35.02
		c0.242-0.79,0.516-1.549,0.801-2.276c2.444,1.37,4.931,2.676,7.449,3.919c-0.095,0.263-0.19,0.527-0.274,0.811
		c-2.023,6.585-3.867,21.956,1.011,26.37c3.034,2.75,8.639,2.023,17.131-2.223c25.843-12.927,28.73,5.426,31.764,5.668
		c1.907,0.147,14.023-12.59,38.054-13.633c0.253-0.011,0.453-0.169,0.516-0.4c2.823-0.242,5.626-0.548,8.397-0.927
		c-0.021,0.759-0.19,1.528,0.485,1.601C283.571,175.12,294.391,178.608,296.171,188.311z"/>
	<path style="fill:#FF73A0;" d="M333.941,151.784c-1.707,14.117-12.769,19.838-20.734,18.669c-3.972-0.579-7.111-2.476-9.787-4.952
		c3.308-1.096,6.564-2.297,9.766-3.593c4.046,1.264,7.933-1.127,10.261-4.551v-0.011
		C327.019,155.619,330.527,153.765,333.941,151.784z"/>
</g>
<circle style="fill:#BA6746;" cx="351.619" cy="215.891" r="13.097"/>
<g>
</g>
<g>
</g>
<g>
</g>
<g>
</g>
<g>
</g>
<g>
</g>
<g>
</g>
<g>
</g>
<g>
</g>
<g>
</g>
<g>
</g>
<g>
</g>
<g>
</g>
<g>
</g>
<g>
</g>
</svg>
