<?xml version="1.0" encoding="iso-8859-1"?>
<!-- Generator: Adobe Illustrator 19.0.0, SVG Export Plug-In . SVG Version: 6.00 Build 0)  -->
<svg version="1.1" id="Capa_1" xmlns="http://www.w3.org/2000/svg" xmlns:xlink="http://www.w3.org/1999/xlink" x="0px" y="0px"
	 viewBox="0 0 512 512" style="enable-background:new 0 0 512 512;" xml:space="preserve">
<path style="fill:#F7A6A6;" d="M0,203.034l7.15,53.654l1.518,11.37c14.46,108.42,102.938,194.348,212.198,199.53
	c3.831,0.185,7.698,0.274,11.573,0.274h47.122c3.875,0,7.742-0.088,11.573-0.274c109.259-5.182,197.738-91.11,212.198-199.503
	l1.518-11.37l7.15-53.681H0z"/>
<path style="fill:#F59A9A;" d="M467.862,203.034c-5.676,136.236-109.85,221.299-183.543,264.713
	c2.277-0.044,4.555-0.053,6.815-0.159c109.259-5.182,197.738-91.109,212.198-199.503l1.518-11.37l7.15-53.681H467.862z"/>
<path style="fill:#E6E6E6;" d="M279.296,397.241h-46.592C118.396,397.241,20.445,315.498,0,203.034h512
	C491.555,315.498,393.604,397.241,279.296,397.241z"/>
<path style="fill:#F9BC61;" d="M35.31,114.759L35.31,114.759C32.291,96.653,18.105,82.467,0,79.448l0,0
	c18.105-3.019,32.291-17.205,35.31-35.31l0,0c3.019,18.105,17.205,32.291,35.31,35.31l0,0
	C52.515,82.467,38.329,96.653,35.31,114.759z"/>
<polygon style="fill:#F7A6A6;" points="512,167.724 308.966,123.586 256,167.724 203.034,123.586 0,167.724 0,203.034 512,203.034 
	"/>
<g>
	<rect x="247.172" y="238.345" style="fill:#CFCFCF;" width="17.655" height="114.759"/>
	<rect x="176.552" y="238.345" style="fill:#CFCFCF;" width="17.655" height="114.759"/>
	<rect x="105.931" y="238.345" style="fill:#CFCFCF;" width="17.655" height="88.276"/>
	<rect x="317.793" y="238.345" style="fill:#CFCFCF;" width="17.655" height="114.759"/>
	<rect x="388.414" y="238.345" style="fill:#CFCFCF;" width="17.655" height="88.276"/>
	<path style="fill:#CFCFCF;" d="M30.014,282.483c3.655,6.082,7.592,11.961,11.758,17.655h428.482
		c4.167-5.694,8.104-11.573,11.758-17.655H30.014z"/>
</g>
<g>
	<path style="fill:#FFCFCF;" d="M235.758,447.647c-31.303,0.6-62.349-5.711-90.924-18.494l7.521-15.969
		c26.227,11.652,54.705,17.382,83.403,16.772V447.647z"/>
	<path style="fill:#FFCFCF;" d="M127.797,419.743c-4.67-2.895-9.031-6.241-13.038-9.993l12.456-12.509
		c3.151,2.86,6.55,5.429,10.161,7.689L127.797,419.743z"/>
</g>
<path style="fill:#F59A9A;" d="M512,167.724L402.202,143.89c-43.732,33.236-114.829,50.406-180.877,59.145H512V167.724z"/>
<g>
</g>
<g>
</g>
<g>
</g>
<g>
</g>
<g>
</g>
<g>
</g>
<g>
</g>
<g>
</g>
<g>
</g>
<g>
</g>
<g>
</g>
<g>
</g>
<g>
</g>
<g>
</g>
<g>
</g>
</svg>
